<svg width="80" height="80" viewBox="0 0 80 80" fill="none" xmlns="http://www.w3.org/2000/svg">
    <path d="M0 40C0 17.9086 17.9086 0 40 0C62.0914 0 80 17.9086 80 40C80 62.0914 62.0914 80 40 80C17.9086 80 0 62.0914 0 40Z" fill="#1151F3" fill-opacity="0.16"/>
    <path fill-rule="evenodd" clip-rule="evenodd" d="M40 42C43.3137 42 46 39.3137 46 36C46 32.6863 43.3137 30 40 30C36.6863 30 34 32.6863 34 36C34 39.3137 36.6863 42 40 42ZM40 40C42.2091 40 44 38.2091 44 36C44 33.7909 42.2091 32 40 32C37.7909 32 36 33.7909 36 36C36 38.2091 37.7909 40 40 40Z" fill="#1151F3"/>
    <path fill-rule="evenodd" clip-rule="evenodd" d="M56 40C56 48.8366 48.8366 56 40 56C31.1634 56 24 48.8366 24 40C24 31.1634 31.1634 24 40 24C48.8366 24 56 31.1634 56 40ZM47.6688 51.7147C45.4661 53.1596 42.8312 54 40 54C37.1688 54 34.5339 53.1596 32.3312 51.7147C33.3145 48.4099 36.3758 46 40 46C43.6242 46 46.6854 48.4099 47.6688 51.7147ZM49.3427 50.4268C52.2014 47.8635 54 44.1418 54 40C54 32.268 47.732 26 40 26C32.268 26 26 32.268 26 40C26 44.1418 27.7986 47.8635 30.6573 50.4268C32.0955 46.6686 35.7361 44 40 44C44.2639 44 47.9045 46.6686 49.3427 50.4268Z" fill="#1151F3"/>
</svg>
